<svg 
    xmlns="http://www.w3.org/2000/svg" 
    xmlns:xlink="http://www.w3.org/1999/xlink" version="1.1" x="0px" y="0px" viewBox="0 0 100 100" xml:space="preserve">
    <path d="M73.806,46.651L39.901,21.426c-0.76-0.566-1.512-0.853-2.233-0.853c-1.187,0-2.573,0.855-2.573,3.267v52  c0,2.412,1.386,3.267,2.573,3.267c0,0,0,0,0,0c0.721,0,1.473-0.287,2.232-0.853l33.905-25.225c1.097-0.816,1.727-1.979,1.727-3.19  S74.903,47.467,73.806,46.651z M73.522,49.914l-0.052-0.507c0.041,0.142,0.062,0.288,0.062,0.434  C73.533,49.865,73.523,49.889,73.522,49.914z M37.107,23.554c0.021-0.245,0.079-0.568,0.22-0.776L37.107,23.554z"/>
</svg>