<svg xmlns="http://www.w3.org/2000/svg" xmlns:xlink="http://www.w3.org/1999/xlink" version="1.1" x="0px" y="0px" viewBox="0 0 100 100"  xml:space="preserve">
<path d="M92.496,61.385L85.14,55.16c0.248-1.707,0.375-3.436,0.375-5.16c0-1.723-0.127-3.452-0.375-5.161l7.355-6.226  c1.124-0.95,1.406-2.569,0.67-3.846l-8.391-14.533c-0.736-1.277-2.279-1.844-3.668-1.346l-9.069,3.26  c-1.354-1.069-2.788-2.043-4.278-2.904c-1.494-0.861-3.055-1.617-4.658-2.254L61.39,7.504C61.127,6.055,59.865,5,58.392,5H41.608  c-1.473,0-2.734,1.055-2.996,2.504l-1.713,9.484c-1.604,0.637-3.163,1.393-4.657,2.254c-1.491,0.861-2.927,1.836-4.281,2.906  l-9.069-3.258c-1.388-0.498-2.932,0.067-3.666,1.344L6.833,34.768c-0.734,1.275-0.453,2.896,0.671,3.848l7.357,6.226  c-0.25,1.708-0.375,3.437-0.375,5.159c0,1.725,0.125,3.453,0.375,5.16l-7.357,6.225c-1.124,0.953-1.405,2.57-0.671,3.846  l8.393,14.537c0.735,1.275,2.276,1.84,3.666,1.344l9.069-3.26c1.354,1.07,2.789,2.043,4.281,2.904  c1.491,0.863,3.054,1.619,4.657,2.256l1.713,9.484C38.874,93.945,40.136,95,41.608,95h14.209h2.574c1.474,0,2.735-1.055,2.998-2.504  l1.711-9.484c1.604-0.639,3.164-1.395,4.654-2.256c1.493-0.861,2.928-1.834,4.282-2.904l9.069,3.26  c1.389,0.498,2.931-0.067,3.668-1.344l8.392-14.535C93.902,63.957,93.62,62.338,92.496,61.385z M64.654,50  c0,8.08-6.574,14.654-14.655,14.654c-8.08,0-14.652-6.574-14.652-14.654s6.572-14.654,14.652-14.654  C58.08,35.346,64.654,41.92,64.654,50z"/>
</svg>